<?xml version="1.0" standalone="no"?><!DOCTYPE svg PUBLIC "-//W3C//DTD SVG 1.1//EN" "http://www.w3.org/Graphics/SVG/1.1/DTD/svg11.dtd"><svg t="1773350486232" class="icon" viewBox="0 0 1024 1024" version="1.1" xmlns="http://www.w3.org/2000/svg" p-id="6812" xmlns:xlink="http://www.w3.org/1999/xlink" width="200" height="200"><path d="M937.9 371.4h-8.3v-31.7c0-41.2-33.5-74.7-74.7-74.7H169.7c-41.2 0-74.7 33.5-74.7 74.7V685c0 41.2 33.5 74.7 74.7 74.7h685.2c41.2 0 74.7-33.5 74.7-74.7v-31.7h8.3c29.6 0 53.6-24.1 53.6-53.6V425c0-29.6-24-53.6-53.6-53.6z m-6.4 221.9h-61.9V685c0 8.1-6.6 14.7-14.7 14.7H169.7c-8.1 0-14.7-6.6-14.7-14.7V339.7c0-8.1 6.6-14.7 14.7-14.7h685.2c8.1 0 14.7 6.6 14.7 14.7v91.7h61.9v161.9z" p-id="6813"></path><path d="M192 368.6h576.1v287.5H192z" p-id="6814"></path></svg>