<?xml version="1.0" standalone="no"?><!DOCTYPE svg PUBLIC "-//W3C//DTD SVG 1.1//EN" "http://www.w3.org/Graphics/SVG/1.1/DTD/svg11.dtd"><svg t="1773350581819" class="icon" viewBox="0 0 1024 1024" version="1.1" xmlns="http://www.w3.org/2000/svg" p-id="15785" xmlns:xlink="http://www.w3.org/1999/xlink" width="200" height="200"><path d="M512 1002.666667c-37.546667 0-68.053333-18.346667-68.053333-41.173334V477.44c0-22.613333 30.506667-40.96 68.053333-40.96s68.053333 18.346667 68.053333 40.96v484.053333C579.84 984.32 549.546667 1002.666667 512 1002.666667zM701.866667 1002.666667c-37.76 0-68.053333-18.346667-68.053334-41.173334V312.533333c0-22.613333 30.293333-40.96 68.053334-40.96s68.053333 18.346667 68.053333 40.96v648.96c0 22.826667-30.506667 41.173333-68.053333 41.173334zM891.733333 1002.666667c-37.546667 0-68.053333-18.346667-68.053333-41.173334V147.84C823.68 125.013333 853.333333 106.666667 891.733333 106.666667s68.266667 18.346667 68.266667 41.173333v813.653333c0 22.826667-30.72 41.173333-68.266667 41.173334zM321.92 1002.666667c-37.546667 0-68.053333-18.346667-68.053333-41.173334v-320c0-22.613333 30.506667-41.173333 68.053333-41.173333s68.053333 18.56 68.053333 41.173333v320c0 22.826667-30.506667 41.173333-68.053333 41.173334zM132.053333 1002.666667C94.506667 1002.666667 64 984.32 64 961.493333v-154.24c0-22.613333 30.506667-41.173333 68.053333-41.173333s68.053333 18.56 68.053334 41.173333v154.24C200.106667 984.32 170.666667 1002.666667 132.053333 1002.666667z" p-id="15786"></path></svg>