<?xml version="1.0" standalone="no"?><!DOCTYPE svg PUBLIC "-//W3C//DTD SVG 1.1//EN" "http://www.w3.org/Graphics/SVG/1.1/DTD/svg11.dtd"><svg t="1773350539195" class="icon" viewBox="0 0 1024 1024" version="1.1" xmlns="http://www.w3.org/2000/svg" p-id="9511" xmlns:xlink="http://www.w3.org/1999/xlink" width="200" height="200"><path d="M402.432 725.333333c-17.066667 0-28.444444-5.688889-39.822222-17.066666-22.755556-22.755556-22.755556-56.888889 0-79.644445 79.644444-79.644444 216.177778-79.644444 295.822222 0 22.755556 22.755556 22.755556 56.888889 0 79.644445-22.755556 22.755556-56.888889 22.755556-79.644444 0-34.133333-34.133333-102.4-34.133333-136.533334 0-11.377778 11.377778-22.755556 17.066667-39.822222 17.066666z" p-id="9512"></path><path d="M239.274667 563.029333c-17.066667 0-28.444444-5.688889-39.822223-17.066666-22.755556-22.755556-22.755556-56.888889 0-79.644445 85.333333-85.333333 193.422222-130.844444 312.888889-130.844444s227.555556 45.511111 312.888889 130.844444c22.755556 22.755556 22.755556 56.888889 0 79.644445-22.755556 22.755556-56.888889 22.755556-79.644444 0-62.577778-62.577778-147.911111-96.711111-233.244445-96.711111-85.333333 0-170.666667 34.133333-233.244444 96.711111-11.377778 11.377778-22.755556 17.066667-39.822222 17.066666z" p-id="9513"></path><path d="M76.117333 400.497778c-17.066667 0-28.444444-5.688889-39.822222-17.066667-22.755556-22.755556-22.755556-56.888889 0-79.644444 125.155556-130.844444 295.822222-199.111111 472.177778-199.111111 182.044444 0 347.022222 68.266667 477.866667 199.111111 22.755556 22.755556 22.755556 56.888889 0 79.644444s-56.888889 22.755556-79.644445 0c-108.088889-108.088889-244.622222-164.977778-398.222222-164.977778-147.911111 0-284.444444 56.888889-392.533333 164.977778-11.377778 11.377778-22.755556 17.066667-39.822223 17.066667z" p-id="9514"></path><path d="M512 785.066667c45.511111 0 79.644444 34.133333 79.644444 79.644444 0 45.511111-34.133333 79.644444-79.644444 79.644445s-79.644444-34.133333-79.644444-79.644445c0-45.511111 34.133333-79.644444 79.644444-79.644444z" p-id="9515"></path></svg>